<svg version="1.2" xmlns="http://www.w3.org/2000/svg" viewBox="0 0 480 101" width="480" height="101">
	<title>autocad-svg</title>
	<defs>
		<linearGradient id="g1" x2="1" gradientUnits="userSpaceOnUse" gradientTransform="matrix(7.739,-15.71,15.948,7.856,109.663,96.775)">
			<stop offset="0" stop-color="#9a1e22"/>
			<stop offset=".6" stop-color="#ca2d29"/>
			<stop offset="1" stop-color="#ca2d29"/>
		</linearGradient>
		<linearGradient id="g2" x2="1" gradientUnits="userSpaceOnUse" gradientTransform="matrix(0,12.822,-13.043,0,124.402,80.329)">
			<stop offset="0" stop-color="#a51e23"/>
			<stop offset="1" stop-color="#a51e24"/>
		</linearGradient>
		<linearGradient id="g3" x2="1" gradientUnits="userSpaceOnUse" gradientTransform="matrix(0,14.525,-22.358,0,64.92,80.112)">
			<stop offset="0" stop-color="#b32626"/>
			<stop offset="1" stop-color="#8c181c"/>
		</linearGradient>
		<linearGradient id="g4" x2="1" gradientUnits="userSpaceOnUse" gradientTransform="matrix(0,-40.33,35.159,0,86.724,54.562)">
			<stop offset="0" stop-color="#7e131a"/>
			<stop offset=".8" stop-color="#be2828"/>
			<stop offset="1" stop-color="#ab1f25"/>
		</linearGradient>
		<linearGradient id="g5" x2="1" gradientUnits="userSpaceOnUse" gradientTransform="matrix(59.503,0,0,34.14,60.173,63.774)">
			<stop offset="0" stop-color="#4a1715"/>
			<stop offset="1" stop-color="#411211"/>
		</linearGradient>
		<linearGradient id="g6" x2="1" gradientUnits="userSpaceOnUse" gradientTransform="matrix(0,54.453,-20.902,0,90.082,7.553)">
			<stop offset="0" stop-color="#de472f"/>
			<stop offset="1" stop-color="#c82f29"/>
		</linearGradient>
		<linearGradient id="g7" x2="1" gradientUnits="userSpaceOnUse" gradientTransform="matrix(0,-28.619,29.794,0,90.312,80.341)">
			<stop offset="0" stop-color="#771215"/>
			<stop offset="1" stop-color="#8c181c"/>
		</linearGradient>
	</defs>
	<style>
		.s0 { fill: #1f1011 } 
		.s1 { fill: #361514 } 
		.s2 { fill: url(#g1) } 
		.s3 { fill: url(#g2) } 
		.s4 { fill: url(#g3) } 
		.s5 { fill: #541412 } 
		.s6 { fill: url(#g4) } 
		.s7 { fill: url(#g5) } 
		.s8 { fill: url(#g6) } 
		.s9 { fill: url(#g7) } 
		.s10 { fill: #ffffff } 
	</style>
	<g id="surface1">
		<path id="Layer" class="s0" d="m60 68.8l0.2-0.5h0.3l1.2 12h-1z"/>
		<path id="Layer" class="s1" d="m113.5 47.6l-0.2-0.5-0.5 0.3 4.3 32.9h1.7z"/>
		<path id="Layer" fill-rule="evenodd" class="s2" d="m104.9 80.3l2.4 14 12.5-1.5 11-12.5z"/>
		<path id="Layer" fill-rule="evenodd" class="s3" d="m130.8 80.3h-12.7l1.7 12.5z"/>
		<path id="Layer" fill-rule="evenodd" class="s4" d="m54 80.1l8.2 12.5 10.3 1.7 3.3-14h-14.6z"/>
		<path id="Layer" class="s5" d="m61.2 80.3l-7.2-0.2 8.4 12.7z"/>
		<path id="Layer" class="s0" d="m61.2 80.3l-1-12-6.2 11.8z"/>
		<path id="Layer" fill-rule="evenodd" class="s6" d="m113.3 47.1l-20.9-39.6-32.2 60.8z"/>
		<path id="Layer" fill-rule="evenodd" class="s7" d="m60.2 68.3l53.1-21.2 4.8 33.2h-56.9z"/>
		<path id="Layer" class="s1" d="m113.3 47.1l4.8 33.2h12.7z"/>
		<path id="Layer" fill-rule="evenodd" class="s8" d="m79.9 60.6l20.4-8.2-7.9-44.9z"/>
		<path id="Layer" fill-rule="evenodd" class="s9" d="m100.3 52.4l4.6 27.9h-29.1l4.4-19.7z"/>
		<path id="Layer" class="s10" d="m154.1 9.4h1.7v86.1h-1.7z"/>
		<path id="Layer" fill-rule="evenodd" class="s10" d="m283.7 71.2q0.9-3.1 3.1-5.5 2.2-2.5 5-3.9 3.2-1.2 7-1.2 3.8 0 6.7 1.2 3.1 1.4 5.3 3.9 2.2 2.4 3.1 5.5 1 3.1 1 7c0 2.6-0.3 5-1 7.2q-0.9 3.1-3.1 5.5c-1.4 1.7-3.1 2.6-5.3 3.6q-2.9 1.4-6.9 1.4-3.9 0-7-1.4-2.9-1.2-5-3.6-2.2-2.4-3.2-5.5-0.9-3.2-0.9-7.2c0-2.5 0.5-4.9 1.2-7zm61.9-4.6c-2.2-1.2-4.6-1.9-7-1.9q-2.8 0-5.2 1-2.6 1-4.4 2.8-1.6 1.7-2.6 4.4c-0.5 1.4-0.7 3.3-0.7 5.3q0 3.1 0.9 5.5 1 2.1 2.7 4.1c1.2 1.2 2.6 2.1 4.1 2.9 1.6 0.4 3.1 0.9 5 0.9q0.7 0 1.9-0.2c0.7 0 1.2 0 1.9-0.3q1-0.2 2-0.4 0.9-0.5 1.4-0.8l0.5 4.8q-2.2 0.8-4.1 1-2.2 0.2-3.6 0.2c-2.9 0-5.3-0.4-7.4-1.2-2.2-0.9-4.1-2.1-5.6-3.6q-2.5-2.5-3.6-5.7-1.4-3.4-1.4-7.2 0-4.1 1.4-7.3 1.2-3.1 3.6-5.5 2.6-2.2 5.8-3.6 3.4-1.2 7.2-1.2 1.9 0 3.8 0.5c1.2 0 2.4 0.5 3.9 0.9zm-97.2 14.5q0 7.2-3.4 11-3.3 3.6-9.8 3.6-6.3 0-9.6-3.6c-2.4-2.6-3.6-6.2-3.6-11v-20h4.8v19.5q0.2 2.4 0.5 4.3 0.3 2.2 1.4 3.6 1 1.5 2.6 2.4 1.5 0.8 3.9 0.8 2.4 0 4.1-0.8 1.6-0.9 2.6-2.4c0.5-0.9 1-2.1 1.2-3.6q0.5-1.9 0.5-4.3v-19.5h4.8zm-31.2 14.2h-5.3l-3.4-8.7h-16.8l-3.3 8.7h-5.1l14.4-34.1h5.1zm164.9 0h-5.3l-3.6-8.7h-16.6l-3.3 8.7h-5.3l14.4-34.2h5.3zm-113.1 0h-5v-30.1h-10.6v-4.3h26.2v4.3h-10.6zm127.7 0h-10.1v-33.9h10.1c2.4 0 4.8 0.3 7 1q3.3 1.2 5.7 3.4c1.7 1.4 2.9 3.1 3.9 5.3q1.4 3.1 1.4 6.9 0 4.4-1.2 7.7c-1 2.2-2.2 3.9-3.6 5.3-1.7 1.5-3.6 2.7-5.8 3.4-2.1 0.7-4.8 0.9-7.4 0.9zm-108.2-12q0.7 2.4 1.9 4.3c0.9 1.3 2.1 2.2 3.3 2.9 1.5 0.8 3.2 1.2 5.1 1.2q2.9 0 5-1.2 2.2-1.2 3.6-2.9 1.2-1.9 1.9-4.3 0.8-2.4 0.8-5c0-1.7-0.3-3.2-0.8-4.8q-0.7-2.4-2.1-4.4c-1-1.2-2.2-2.1-3.4-3.1-1.4-0.7-3.1-1-5-1-1.9 0-3.6 0.3-5.1 1q-1.9 1.2-3.3 3.1-1.2 2-2.2 4.4-0.7 2.1-0.7 4.8 0.2 2.6 1 5zm108 8c4.3 0 7.4-1.2 9.6-3.2 2.4-2.1 3.3-5.3 3.3-9.8q0-2.9-0.9-5.3-1-2.2-2.7-3.9c-0.9-1.2-2.4-1.9-3.8-2.4-1.5-0.7-3.1-0.9-4.8-0.9h-5.8v25.5zm-196.3-25.3l-7 16.8h13.7zm164.7 0l-6.8 17.1h13.5zm55.7 2.9c-2.4 0-4.4-1.9-4.4-4.3 0-2.4 2-4.4 4.4-4.4 2.3 0 4.3 2 4.3 4.4 0 2.4-2 4.3-4.3 4.3zm3.8-4.2c0-2.1-1.7-3.7-3.7-3.7-2.1 0-3.7 1.6-3.7 3.7 0 2.1 1.6 3.7 3.7 3.7 2 0 3.7-1.6 3.7-3.7zm-4.8 2h-0.7v-4.8h1.9q0.2 0 0.5 0.3 0.2 0 0.5 0.2 0.2 0 0.4 0.5 0 0.2 0 0.5 0 0.4-0.2 0.7c0 0.5-0.2 0.5-0.7 0.5l0.9 2.1h-0.4l-1-1.9h-1.2zm1.7-2.6q0.2 0 0.2-0.3 0.3-0.2 0.3-0.2c0-0.3 0-0.3 0-0.5q0-0.2 0-0.2-0.3-0.3-0.3-0.3c-0.2-0.2-0.2-0.2-0.5-0.2q0 0-0.2 0h-1.2v1.7c0.2 0 1.4 0 1.7 0zm-178.1-33.5q0 3.9-1.2 6.3c-1 1.7-1.9 2.9-3.1 3.8-1.2 1-2.4 1.7-3.9 2q-2.1 0.4-4 0.4-1.7 0-3.9-0.4-2.1-0.5-4.1-2c-1.2-0.9-2.1-2.1-2.8-3.8q-1.2-2.4-1.2-6.3v-21.8h3.3v21.8q0 2.2 0.5 3.9c0.2 1.2 1 2.2 1.7 3.1 0.7 0.7 1.7 1.5 2.6 1.9 1.2 0.5 2.4 0.8 4.1 0.8 1.4 0 2.6-0.3 3.8-0.8 1.2-0.4 2-1.2 2.7-1.9 0.9-0.9 1.4-1.9 1.7-3.1 0.4-1 0.7-2.4 0.7-3.9v-21.8h3.3zm122.2 7.4c1 0.7 2.2 1.2 3.4 1.5q1.6 0.7 4 0.7 1.5 0 2.9-0.5c1-0.2 1.7-0.7 2.4-1.2 0.7-0.5 1.2-1.5 1.7-2.2q0.5-1.4 0.5-3.1 0-1.7-1-2.9c-0.9-0.7-1.7-1.7-2.9-2.4q-1.9-1-3.8-1.9-1.9-1.2-3.6-2.4-1.7-1.2-2.9-2.9-1.2-1.4-1.2-3.9 0-1.9 0.7-3.6c0.5-0.9 1.5-1.9 2.4-2.6 1-0.7 2-1.4 3.4-1.7q1.9-0.7 4.1-0.7 1.2 0 3.1 0.2 1.9 0.3 3.6 0.8l-0.5 3.1c-0.7-0.5-1.7-0.7-2.9-1-0.9-0.2-2.1-0.5-3.1-0.5q-1.4 0-2.6 0.3-1.5 0.2-2.4 0.9-1.2 0.8-1.7 2c-0.5 0.7-0.7 1.6-0.7 2.6q0 1.7 1.2 2.9c0.7 0.7 1.7 1.7 2.9 2.2q1.6 1.2 3.6 2.1 2.1 1 3.8 2.2 1.7 1.4 2.9 3.1 1.2 1.7 1.2 4.1 0 2.6-1 4.3-0.9 2-2.6 3.2-1.7 0.9-3.6 1.6-1.9 0.5-3.9 0.5c-1.6 0-3.1-0.2-4.5-0.5-1.2-0.2-2.2-0.7-3.1-0.9zm-91-19.3q1-3.1 2.6-5.5c1.5-1.7 2.9-2.9 4.8-3.8q2.7-1.5 6.5-1.5 3.9 0 6.7 1.5 2.9 1.4 4.6 3.8 1.9 2.4 2.9 5.5 0.9 3.2 0.7 6.5 0 3.9-1 7.2-0.7 3.2-2.6 5.3c-1.2 1.7-2.9 2.9-4.8 3.6q-2.6 1.5-6.5 1.5c-2.1 0-4.5-0.5-6.2-1.5q-2.9-1.2-4.8-3.6-1.9-2.1-2.9-5.3-0.7-3.3-1-7.2c0-2.1 0.5-4.3 1-6.5zm84.7 23.6h-17v-33.9h16.5v2.9h-13.2v12h12.5v2.9h-12.5v13h13.7zm-101.7 0v-30.8h-10.1v-2.9h23.3v2.9h-10.1v30.8zm58.3 0h-6v-33.7h8.4q4.6 0 7.9 1.2 3.1 1.2 5.1 3.4c1.4 1.4 2.4 3.4 3.1 5.3q0.9 3.1 0.9 6.7 0 4.8-1.4 7.9-1.4 3.2-4.1 5.1-2.6 2.2-6 3.1c-2.6 0.7-5 1-7.9 1zm78.5 0h-3.4v-33.7h3.4v14.9l15.3-14.9h4.4l-16.4 15.9 17.6 17.8h-4.6l-16.3-16.9zm-180 0h-3.4l-3.6-9.1h-17l-3.6 9.1h-3.4l13.9-33.6h3.9zm69.1-30.3c-1.4 0.7-2.6 1.9-3.6 3.3-1 1.5-1.7 2.9-2.2 4.6q-0.4 2.7-0.4 5.3 0 2.7 0.4 5.3c0.5 1.9 1.2 3.4 2.2 4.8 1 1.5 2.2 2.4 3.6 3.4 1.4 0.7 3.4 1.2 5.3 1.2 1.9 0 3.6-0.5 5-1.2q2.2-1.2 3.6-3.4c1-1.4 1.7-2.9 2.2-4.8q0.7-2.6 0.7-5.3 0-2.6-0.7-5.3c-0.5-1.7-1.2-3.1-2.2-4.6-0.9-1.4-2.1-2.4-3.6-3.3-1.4-0.7-3.1-1.2-5-1.2-2.2 0-3.9 0.2-5.3 1.2zm29.8 27.2h2.6q3.6 0 6.7-0.8 2.9-0.7 4.8-2.4c1.5-1.2 2.4-2.6 3.1-4.5q1.2-2.7 1.2-6.5 0-3.9-0.9-6.5-1.2-2.7-2.9-4.4-1.9-1.4-4.3-2.1-2.7-0.7-5.3-0.7h-5zm-114.3-27.7l-7.2 18.8h14.4zm223 4.3c-2.4 0-4.3-1.9-4.3-4.3 0-2.4 1.9-4.4 4.3-4.4 2.4 0 4.3 2 4.3 4.4 0 2.4-1.9 4.3-4.3 4.3zm3.6-4.2c0-2.1-1.7-3.7-3.7-3.7-2.1 0-3.8 1.6-3.8 3.7 0 2 1.7 3.7 3.8 3.7 2 0 3.7-1.7 3.7-3.7zm-4.6 2h-0.7v-4.8h1.7q0.2 0 0.7 0.3 0.2 0 0.5 0.2 0.2 0 0.2 0.5 0.3 0.2 0.3 0.5 0 0.4-0.3 0.7c-0.2 0.5-0.5 0.5-0.7 0.5l1 2.1h-0.5l-1-1.9h-1.2zm1.5-2.6q0.2 0 0.2-0.3 0.2-0.2 0.2-0.5v-0.2q0.3-0.2 0-0.5-0.2 0-0.2-0.2c0 0-0.2 0-0.5 0h-1.4v1.7c0.2 0 1.4 0 1.7 0z"/>
	</g>
</svg>