<svg version="1.2" xmlns="http://www.w3.org/2000/svg" viewBox="0 0 200 42" width="200" height="42">
	<title>autocad-svg</title>
	<defs>
		<linearGradient id="g1" x2="1" gradientUnits="userSpaceOnUse" gradientTransform="matrix(3.218,-6.533,6.689,3.295,45.696,40.243)">
			<stop offset="0" stop-color="#9a1e22"/>
			<stop offset=".6" stop-color="#ca2d29"/>
			<stop offset="1" stop-color="#ca2d29"/>
		</linearGradient>
		<linearGradient id="g2" x2="1" gradientUnits="userSpaceOnUse" gradientTransform="matrix(0,5.332,-5.401,0,51.834,33.404)">
			<stop offset="0" stop-color="#a51e23"/>
			<stop offset="1" stop-color="#a51e24"/>
		</linearGradient>
		<linearGradient id="g3" x2="1" gradientUnits="userSpaceOnUse" gradientTransform="matrix(0,6.04,-9.311,0,27.05,33.314)">
			<stop offset="0" stop-color="#b32626"/>
			<stop offset="1" stop-color="#8c181c"/>
		</linearGradient>
		<linearGradient id="g4" x2="1" gradientUnits="userSpaceOnUse" gradientTransform="matrix(0,-16.771,14.662,0,36.135,22.689)">
			<stop offset="0" stop-color="#7e131a"/>
			<stop offset=".8" stop-color="#be2828"/>
			<stop offset="1" stop-color="#ab1f25"/>
		</linearGradient>
		<linearGradient id="g5" x2="1" gradientUnits="userSpaceOnUse" gradientTransform="matrix(24.793,0,0,14.166,25.072,26.52)">
			<stop offset="0" stop-color="#4a1715"/>
			<stop offset="1" stop-color="#411211"/>
		</linearGradient>
		<linearGradient id="g6" x2="1" gradientUnits="userSpaceOnUse" gradientTransform="matrix(0,22.644,-8.672,0,37.534,3.141)">
			<stop offset="0" stop-color="#de472f"/>
			<stop offset="1" stop-color="#c82f29"/>
		</linearGradient>
		<linearGradient id="g7" x2="1" gradientUnits="userSpaceOnUse" gradientTransform="matrix(0,-11.901,12.383,0,37.63,33.409)">
			<stop offset="0" stop-color="#771215"/>
			<stop offset="1" stop-color="#8c181c"/>
		</linearGradient>
	</defs>
	<style>
		.s0 { fill: #1f1011 } 
		.s1 { fill: #361514 } 
		.s2 { fill: url(#g1) } 
		.s3 { fill: url(#g2) } 
		.s4 { fill: url(#g3) } 
		.s5 { fill: #541412 } 
		.s6 { fill: url(#g4) } 
		.s7 { fill: url(#g5) } 
		.s8 { fill: url(#g6) } 
		.s9 { fill: url(#g7) } 
		.s10 { fill: #a7a8ac } 
		.s11 { fill: #221e1f } 
	</style>
	<g id="surface1">
		<path id="Layer" class="s0" d="m25 28.6l0.1-0.2h0.1l0.5 5h-0.4z"/>
		<path id="Layer" class="s1" d="m47.3 19.8l-0.1-0.2-0.2 0.1 1.8 13.7h0.7z"/>
		<path id="Layer" fill-rule="evenodd" class="s2" d="m43.7 33.4l1 5.8 5.2-0.6 4.6-5.2h-10.8z"/>
		<path id="Layer" fill-rule="evenodd" class="s3" d="m54.5 33.4h-5.3l0.7 5.2z"/>
		<path id="Layer" fill-rule="evenodd" class="s4" d="m22.5 33.3l3.4 5.2 4.3 0.7 1.4-5.8h-6.1z"/>
		<path id="Layer" class="s5" d="m25.5 33.4l-3-0.1 3.5 5.3z"/>
		<path id="Layer" class="s0" d="m25.5 33.4l-0.4-5-2.6 4.9z"/>
		<path id="Layer" fill-rule="evenodd" class="s6" d="m47.2 19.6l-8.7-16.5-13.4 25.3z"/>
		<path id="Layer" fill-rule="evenodd" class="s7" d="m25.1 28.4l22.1-8.8 2 13.8h-23.7z"/>
		<path id="Layer" class="s1" d="m47.2 19.6l2 13.8h5.3z"/>
		<path id="Layer" fill-rule="evenodd" class="s8" d="m33.3 25.2l8.5-3.4-3.3-18.7z"/>
		<path id="Layer" fill-rule="evenodd" class="s9" d="m41.8 21.8l1.9 11.6h-12.1l1.8-8.2z"/>
		<path id="Layer" class="s10" d="m64.2 3.9h0.7v35.8h-0.7z"/>
		<path id="Layer" fill-rule="evenodd" class="s11" d="m118.2 29.6q0.4-1.3 1.3-2.3 0.9-1 2.1-1.6 1.3-0.5 2.9-0.5 1.6 0 2.8 0.5 1.3 0.6 2.2 1.6 0.9 1 1.3 2.3 0.4 1.3 0.4 2.9c0 1.1-0.1 2.1-0.4 3q-0.4 1.3-1.3 2.3c-0.6 0.7-1.3 1.1-2.2 1.5q-1.2 0.6-2.9 0.6-1.6 0-2.9-0.6-1.2-0.5-2.1-1.5-0.9-1-1.3-2.3-0.4-1.3-0.4-3c0-1 0.2-2 0.5-2.9zm25.8-1.9c-0.9-0.5-1.9-0.8-2.9-0.8q-1.2 0-2.2 0.4c-0.7 0.3-1.3 0.7-1.8 1.2q-0.7 0.7-1.1 1.8c-0.2 0.6-0.3 1.4-0.3 2.2q0 1.3 0.4 2.3 0.4 0.9 1.1 1.7c0.5 0.5 1.1 0.9 1.7 1.2 0.7 0.2 1.3 0.4 2.1 0.4q0.3 0 0.8-0.1c0.3 0 0.5 0 0.8-0.1q0.4-0.1 0.8-0.2 0.4-0.2 0.6-0.3l0.2 2q-0.9 0.3-1.7 0.4-0.9 0.1-1.5 0.1c-1.2 0-2.2-0.2-3.1-0.5-0.9-0.4-1.7-0.9-2.3-1.5-0.7-0.7-1.2-1.5-1.5-2.4q-0.6-1.4-0.6-3 0-1.7 0.6-3 0.5-1.3 1.5-2.3c0.7-0.6 1.5-1.1 2.4-1.5q1.4-0.5 3-0.5 0.8 0 1.6 0.2c0.5 0 1 0.2 1.6 0.4zm-40.5 6q0 3-1.4 4.6-1.4 1.5-4.1 1.5-2.6 0-4-1.5c-1-1.1-1.5-2.6-1.5-4.6v-8.3h2v8.1q0.1 1 0.2 1.8c0.1 0.6 0.3 1.1 0.6 1.5q0.4 0.6 1.1 1 0.6 0.3 1.6 0.3 1 0 1.7-0.3 0.7-0.4 1.1-1c0.2-0.4 0.4-0.9 0.5-1.5q0.2-0.8 0.2-1.8v-8.1h2zm-13 5.9h-2.2l-1.4-3.6h-7l-1.4 3.6h-2.1l6-14.2h2.1zm68.7 0h-2.2l-1.5-3.6h-6.9l-1.4 3.6h-2.2l6-14.2h2.2zm-47.1 0h-2.1v-12.5h-4.4v-1.8h10.9v1.8h-4.4zm53.2 0h-4.2v-14.1h4.2c1 0 2 0.1 2.9 0.4q1.4 0.5 2.4 1.4c0.7 0.6 1.2 1.3 1.6 2.2q0.6 1.3 0.6 2.9 0 1.8-0.5 3.2c-0.4 0.9-0.9 1.6-1.5 2.2-0.7 0.6-1.5 1.1-2.4 1.4-0.9 0.3-2 0.4-3.1 0.4zm-45.1-5q0.3 1 0.8 1.8c0.4 0.5 0.9 0.9 1.4 1.2 0.6 0.3 1.3 0.5 2.1 0.5q1.2 0 2.1-0.5 0.9-0.5 1.5-1.2 0.5-0.8 0.8-1.8 0.3-1 0.3-2.1c0-0.7-0.1-1.3-0.3-2q-0.3-1-0.9-1.8c-0.4-0.5-0.9-0.9-1.4-1.3-0.6-0.3-1.3-0.4-2.1-0.4-0.8 0-1.5 0.1-2.1 0.4q-0.8 0.5-1.4 1.3-0.5 0.8-0.9 1.8-0.3 0.9-0.3 2 0.1 1.1 0.4 2.1zm45 3.3c1.8 0 3.1-0.5 4-1.3 1-0.9 1.4-2.2 1.4-4.1q0-1.2-0.4-2.2-0.4-0.9-1.1-1.6c-0.4-0.5-1-0.8-1.6-1-0.6-0.3-1.3-0.4-2-0.4h-2.4v10.6zm-81.8-10.5l-2.9 7h5.7zm68.6 0l-2.8 7.1h5.6zm23.2 1.2c-1 0-1.8-0.8-1.8-1.8 0-1 0.8-1.8 1.8-1.8 1 0 1.8 0.8 1.8 1.8 0 1-0.8 1.8-1.8 1.8zm0-3.3c-0.8 0-1.5 0.7-1.5 1.6 0 0.8 0.7 1.5 1.5 1.5 0.9 0 1.6-0.7 1.6-1.5 0-0.9-0.7-1.6-1.6-1.6zm-0.4 2.4h-0.3v-2h0.8q0.1 0 0.2 0.1 0.1 0 0.2 0.1 0.1 0 0.2 0.2 0 0.1 0 0.2 0 0.2-0.1 0.3c0 0.2-0.1 0.2-0.3 0.2l0.4 0.9h-0.2l-0.4-0.8h-0.5zm0.7-1.1q0.1 0 0.1-0.1 0.1-0.1 0.1-0.1c0-0.1 0-0.1 0-0.2q0-0.1 0-0.1-0.1-0.1-0.1-0.1c-0.1-0.1-0.1-0.1-0.2-0.1q0 0-0.1 0h-0.5v0.7c0.1 0 0.6 0 0.7 0zm-74.2-13.9q0 1.6-0.5 2.6c-0.4 0.7-0.8 1.2-1.3 1.6-0.5 0.4-1 0.7-1.6 0.8q-0.9 0.2-1.7 0.2-0.7 0-1.6-0.2-0.9-0.2-1.7-0.8c-0.5-0.4-0.9-0.9-1.2-1.6q-0.5-1-0.5-2.6v-9.1h1.4v9.1q0 0.9 0.2 1.6c0.1 0.5 0.4 0.9 0.7 1.3 0.3 0.3 0.7 0.6 1.1 0.8 0.5 0.2 1 0.3 1.7 0.3 0.6 0 1.1-0.1 1.6-0.3 0.5-0.2 0.8-0.5 1.1-0.8 0.4-0.4 0.6-0.8 0.7-1.3 0.2-0.4 0.3-1 0.3-1.6v-9.1h1.4zm50.9 3.1c0.4 0.3 0.9 0.5 1.4 0.6q0.7 0.3 1.7 0.3 0.6 0 1.2-0.2c0.4-0.1 0.7-0.3 1-0.5 0.3-0.2 0.5-0.6 0.7-0.9q0.2-0.6 0.2-1.3 0-0.7-0.4-1.2c-0.4-0.3-0.7-0.7-1.2-1q-0.8-0.4-1.6-0.8-0.8-0.5-1.5-1-0.7-0.5-1.2-1.2-0.5-0.6-0.5-1.6 0-0.8 0.3-1.5c0.2-0.4 0.6-0.8 1-1.1 0.4-0.3 0.8-0.6 1.4-0.7q0.8-0.3 1.7-0.3 0.5 0 1.3 0.1 0.8 0.1 1.5 0.3l-0.2 1.3c-0.3-0.2-0.7-0.3-1.2-0.4-0.4-0.1-0.9-0.2-1.3-0.2q-0.6 0-1.1 0.1-0.6 0.1-1 0.4-0.5 0.3-0.7 0.8c-0.2 0.3-0.3 0.7-0.3 1.1q0 0.7 0.5 1.2c0.3 0.3 0.7 0.7 1.2 0.9q0.7 0.5 1.5 0.9 0.9 0.4 1.6 0.9 0.7 0.6 1.2 1.3 0.5 0.7 0.5 1.7 0 1.1-0.4 1.8-0.4 0.8-1.1 1.3-0.7 0.4-1.5 0.7-0.8 0.2-1.6 0.2c-0.7 0-1.3-0.1-1.9-0.2-0.5-0.1-0.9-0.3-1.3-0.4zm-37.9-8q0.4-1.3 1.1-2.3c0.6-0.7 1.2-1.2 2-1.6q1.1-0.6 2.7-0.6 1.6 0 2.8 0.6 1.2 0.6 1.9 1.6 0.8 1 1.2 2.3 0.4 1.3 0.3 2.7 0 1.6-0.4 3-0.3 1.3-1.1 2.2c-0.5 0.7-1.2 1.2-2 1.5q-1.1 0.6-2.7 0.6c-0.9 0-1.9-0.2-2.6-0.6q-1.2-0.5-2-1.5-0.8-0.9-1.2-2.2-0.3-1.4-0.4-3c0-0.9 0.2-1.8 0.4-2.7zm35.3 9.8h-7.1v-14.1h6.9v1.2h-5.5v5h5.2v1.2h-5.2v5.4h5.7zm-42.4 0v-12.8h-4.2v-1.2h9.7v1.2h-4.2v12.8zm24.3 0h-2.5v-14h3.5q1.9 0 3.3 0.5 1.3 0.5 2.1 1.4c0.6 0.6 1 1.4 1.3 2.2q0.4 1.3 0.4 2.8 0 2-0.6 3.3-0.6 1.3-1.7 2.1-1.1 0.9-2.5 1.3c-1.1 0.3-2.1 0.4-3.3 0.4zm32.7 0h-1.4v-14h1.4v6.2l6.4-6.2h1.8l-6.8 6.6 7.3 7.4h-1.9l-6.8-7zm-75 0h-1.4l-1.5-3.8h-7.1l-1.5 3.8h-1.4l5.8-14h1.6zm28.8-12.6c-0.6 0.3-1.1 0.8-1.5 1.4-0.4 0.6-0.7 1.2-0.9 1.9q-0.2 1.1-0.2 2.2 0 1.1 0.2 2.2c0.2 0.8 0.5 1.4 0.9 2 0.4 0.6 0.9 1 1.5 1.4 0.6 0.3 1.4 0.5 2.2 0.5 0.8 0 1.5-0.2 2.1-0.5q0.9-0.5 1.5-1.4c0.4-0.6 0.7-1.2 0.9-2q0.3-1.1 0.3-2.2 0-1.1-0.3-2.2c-0.2-0.7-0.5-1.3-0.9-1.9-0.4-0.6-0.9-1-1.5-1.4-0.6-0.3-1.3-0.5-2.1-0.5-0.9 0-1.6 0.1-2.2 0.5zm12.4 11.3h1.1q1.5 0 2.8-0.3 1.2-0.3 2-1c0.6-0.5 1-1.1 1.3-1.9q0.5-1.1 0.5-2.7 0-1.6-0.4-2.7-0.5-1.1-1.2-1.8-0.8-0.6-1.8-0.9-1.1-0.3-2.2-0.3h-2.1zm-47.6-11.5l-3 7.8h6zm92.9 1.8c-1 0-1.8-0.8-1.8-1.8 0-1 0.8-1.8 1.8-1.8 1 0 1.8 0.8 1.8 1.8 0 1-0.8 1.8-1.8 1.8zm0-3.3c-0.9 0-1.6 0.7-1.6 1.6 0 0.8 0.7 1.5 1.6 1.5 0.8 0 1.5-0.7 1.5-1.5 0-0.9-0.7-1.6-1.5-1.6zm-0.4 2.4h-0.3v-2h0.7q0.1 0 0.3 0.1 0.1 0 0.2 0.1 0.1 0 0.1 0.2 0.1 0.1 0.1 0.2 0 0.2-0.1 0.3c-0.1 0.2-0.2 0.2-0.3 0.2l0.4 0.9h-0.2l-0.4-0.8h-0.5zm0.6-1.1q0.1 0 0.1-0.1 0.1-0.1 0.1-0.2c0 0 0-0.1 0-0.1q0.1-0.1 0-0.2-0.1 0-0.1-0.1c0 0-0.1 0-0.2 0 0 0-0.1 0-0.1 0h-0.5v0.7c0.1 0 0.6 0 0.7 0z"/>
	</g>
</svg>