<svg version="1.2" xmlns="http://www.w3.org/2000/svg" viewBox="0 0 480 125" width="480" height="125">
	<title>enscape-svg</title>
	<defs>
		<linearGradient id="g1" x2="1" gradientUnits="userSpaceOnUse" gradientTransform="matrix(-89.662,51.766,-46.602,-80.717,121.166,32.078)">
			<stop offset=".012" stop-color="#ee5c17"/>
			<stop offset="1" stop-color="#ee9604"/>
		</linearGradient>
	</defs>
	<style>
		.s0 { fill: #ffffff } 
		.s1 { fill: url(#g1) } 
	</style>
	<g id="surface1">
		<path id="Layer" fill-rule="evenodd" class="s0" d="m444.2 44.2h-1.9v-6.9h-2.9v-2h7.7v1.7h-2.9zm11.8-6.2q0 0-0.2 0.4c-0.3 0.5-0.3 1-0.8 1.5l-1.2 2.4h-0.9l-1.2-2.4c-0.7-1-1.2-1.9-1.2-1.9v6.2h-1.7v-8.6h2.2l1.6 3.1q0.3 0.5 0.3 0.7c0.2 0.5 0.5 0.7 0.5 0.7 0 0 0.4-0.7 0.7-1.4l1.7-3.1h2.1v8.6h-1.9zm-218.6 35.1c0.4 5.3 5 7.9 11.2 7.9 5.6 0 9.2-2.1 9.2-6.7 0-5.3-4.8-6.2-9.6-7.2q-1.2-0.2-2.7-0.5c-6-1.4-13.7-3.8-13.7-13 0-8.4 6-12.7 15.6-12.7 8.7 0 14.9 3.6 17.1 11.3l-6.7 1.7c-1.2-4.3-4.6-6.7-10.4-6.7-5.7 0-8.6 2.4-8.6 6.2 0 5.1 5.3 6.3 11.8 7.5 6.4 1.2 14.4 3.6 14.4 13.4 0 8.7-6 13-16.4 13-7.6 0-16.3-2.4-18.2-12.5zm-58.8-24.5h-23.8v11.5h18.3v6.7h-18.3v13.3h24v6.5h-30.9v-44.8h30.7zm14.6 5.3c0 1 0.3 5.8 0.3 10.9v22.1h-7v-44.7h7l23.7 32.6h0.3v-0.2c0-1-0.3-5.8-0.3-10.3v-22.1h7.2v44.7h-7.2l-23.7-33.2h-0.3zm76.1 10.6c0-13.7 9.9-23.1 23.1-23.1 10.3 0 17.5 5.8 20.6 12.5l-7 1.9c-1.9-3.1-6-7.7-13.9-7.7-9.1 0-15.6 6.5-15.6 16.6 0 10.1 6.7 16.6 15.6 16.6 6.7 0 12-3.6 14.4-8.9l7 1.9c-3.4 8.4-11.5 13.5-21.1 13.5-13 0-22.8-9.1-23.1-23.3zm58.8 12l-4.3 10.6h-7.2l18.2-44.7h8l18.2 44.7h-7.4l-4.1-10.6zm14.4-17.1c-0.3-0.9-0.7-1.9-1-2.9-1.4-3.1-2.6-6.2-2.6-6.2h-0.3c0 0.2-2.1 5.3-3.6 9.1l-4.3 10.8h16.3zm38.7 11.8h-7.5v15.9h-6.9v-44.7h14.6c10.3 0 16.8 5 16.8 14.4 0 8.9-6.5 14.4-17 14.4zm0.2-22.3h-7.7v16.1h7.7c6.5 0 9.9-2.9 9.9-8.2 0-5.3-3.6-7.9-9.9-7.9zm22.8-6.5h31v6.5h-24v11.7h18.5v6.5h-18.5v13.3h24v6.7h-31z"/>
		<path id="Layer" fill-rule="evenodd" class="s1" d="m125 38.9l-3.3 9.7-1.7 0.9-49.4 28.4-30-17.3 7.6 22.8 22.4 13.2 42.4-25-7.2 19.3-35.2 24-35.1-24.3-19.4-51.7 54.5-31.4zm-22.4 1.6l-31.9-18.5-32.1 18.8 32.1 18.5z"/>
	</g>
</svg>