<svg version="1.2" xmlns="http://www.w3.org/2000/svg" viewBox="0 0 480 110" width="480" height="110">
	<title>sketchup-svg</title>
	<style>
		.s0 { fill: #ffffff } 
		.s1 { fill: #005f9e } 
	</style>
	<g id="surface1">
		<path id="Layer" fill-rule="evenodd" class="s0" d="m122.9 69.1l7.7-4.1c3.3 6.7 8.6 9.8 15.8 9.8 7 0 11.5-2.1 11.5-7.4 0-4.7-3.3-7.1-12.9-9.8-11.1-3.3-20-6.2-20-17.2 0-9.6 8-16 19.7-16 11.3 0 18 5.5 21.4 12.2l-7 5c-3.3-5.7-8.1-8.4-14.4-8.4-6.5 0-10.1 2.2-10.1 6.5 0 5.3 4.4 7.2 13.5 9.8 11 3.1 19.7 6.7 19.7 17.5 0 9.3-8 16.5-21.6 16.5-11.6 0-19.7-5.8-23.3-14.4zm48.7 13.4v-56.9h9.4v33.9l15.6-17.9h10.5l-13.4 14.8 14.4 26.1h-9.9l-10.5-18.9-6.7 7.2v11.7zm36.2-20.3c0-15.6 11-21.3 19.4-21.3 9.4 0 18 5.5 18 22v2.4h-28c0.4 7.4 5 10.5 11 10.5 5.3 0 8.4-1.7 11.5-4.8l5.1 5c-4.4 4.6-9.9 7.5-17.3 7.5-10.3 0-19.7-6.3-19.7-21.3zm28.8-4.1c-0.5-6.2-3.6-9.6-9.4-9.6-4.5 0-8.8 2.7-9.8 9.6zm19 13.9v-22.7h-7.2v-7.7h7.2v-14.1h9.6v14.1h10.5v7.7h-10.5v20c0 4.6 1.2 6.3 6 6.3 1.4 0 3.1-0.3 4-0.5v7.4c-0.9 0.2-4.5 0.5-6.9 0.5-10.6 0-12.7-3.8-12.7-11zm23.7-9.8c0-15.6 10.6-21.3 19.9-21.3 10.1 0 14.4 5.7 16.8 11.9l-7.9 2.9c-1.7-4.5-4.5-6.9-9.1-6.9-5.5 0-10.1 3.6-10.1 13.4 0 8.8 3.6 13.6 9.9 13.6 4.3 0 7.4-1.4 9.6-7.2l7.9 2.9c-2.9 6.5-7.9 12-17.8 12-9.6 0-19.2-6.5-19.2-21.3zm42.7 20.3v-56.9h9.4v21.5c2.9-2.6 7.7-6.2 15.1-6.2 7.2 0 11.8 4.3 11.8 12.4v29.2h-9.4v-26.8c0-4.5-1.9-6.7-6.2-6.7-4.1 0-7.7 2.2-11.1 5.3v28.2zm43.7-20.8v-36.1h9.6v35.4c0 8.6 3.9 13.8 12.5 13.8 8.9 0 12.5-5 12.5-13.8v-35.4h9.6v36.1c0 12.9-7.5 21.8-22.1 21.8-15.6 0-22.1-8.9-22.1-21.8zm50.4 36.3v-56.4h9.6v5.5c2.7-3.3 7-6.2 13-6.2 9.3 0 16.3 6.9 16.3 21.3 0 14.1-7 21-17.5 21-4.6 0-8.9-1.7-11.8-5v19.8zm29.3-35.8c0-8.6-3.8-13.2-9.8-13.2-3.9 0-7.7 2.7-9.9 5.3v16.5c2.4 3.1 6.3 5 9.6 5 7-0.2 10.1-4.5 10.1-13.6z"/>
		<path id="Layer" fill-rule="evenodd" class="s1" d="m95.3 64.6c0 0-0.5 5.5-3.6 11-3.6 6.4-8.4 9.1-8.4 9.1l-27.1 15.3v-47.6l-41.1-23.5 26.9-15.3c0 0 4.6-2.8 12.2-2.8 7.2 0 12 2.6 12 2.6l29.1 16.7zm-10.1-5.5v-22.9l-21.1-12.2c0 0-4.3-2.2-9.9-2.2-5.7 0-9.3 1.9-9.3 1.9l-9.1 5.3 4 2.4 6.8-3.8c0 0 2.6-1.7 7.6-1.7 5.3 0 8 1.9 8 1.9l18.7 10.5v21.3c0 2.4-1 9.3-7.5 13.9l-6.9 4v4.6l8.9-5c8.1-5.8 9.8-14.4 9.8-18zm-18.7-12.6v17.9c0 0 4.1-5 4.1-9.8 0-6.2 0-10.1 0-10.1 0 0-2.9-1.6-8.2-4.7-5-2.9-11-1.7-11-1.7zm-53.6-14.1l39.2 22.2v45.2l-26.4-15.1c0 0-3.9-2.1-7.2-6.6-3.4-4.6-5.1-10.6-5.3-12.5l28.5 16.3v-4.8l-26.6-15.1 10.3-5.9 16.6 9.5v-5l-28.8-16.5z"/>
	</g>
</svg>