<svg version="1.2" xmlns="http://www.w3.org/2000/svg" viewBox="0 0 200 46" width="200" height="46">
	<title>sketchup-svg</title>
	<style>
		.s0 { fill: #363545 } 
		.s1 { fill: #005f9e } 
	</style>
	<g id="surface1">
		<path id="Layer" fill-rule="evenodd" class="s0" d="m51.2 28.9l3.2-1.7c1.4 2.8 3.6 4.1 6.6 4.1 2.9 0 4.8-0.9 4.8-3.1 0-2-1.4-3-5.4-4.1-4.6-1.4-8.3-2.6-8.3-7.2 0-4 3.3-6.7 8.2-6.7 4.7 0 7.5 2.3 8.9 5.1l-2.9 2.1c-1.4-2.4-3.4-3.5-6-3.5-2.7 0-4.2 0.9-4.2 2.7 0 2.2 1.8 3 5.6 4.1 4.6 1.3 8.2 2.8 8.2 7.3 0 3.9-3.3 6.9-9 6.9-4.8 0-8.2-2.4-9.7-6zm20.3 5.6v-23.8h3.9v14.2l6.5-7.5h4.4l-5.6 6.2 6 10.9h-4.1l-4.4-7.9-2.8 3v4.9zm15.1-8.5c0-6.5 4.6-8.9 8.1-8.9 3.9 0 7.5 2.3 7.5 9.2v1h-11.7c0.2 3.1 2.1 4.4 4.6 4.4 2.2 0 3.5-0.7 4.8-2l2.1 2.1c-1.8 1.9-4.1 3.1-7.2 3.1-4.3 0-8.2-2.6-8.2-8.9zm12-1.7c-0.2-2.6-1.5-4-3.9-4-1.9 0-3.7 1.1-4.1 4zm7.9 5.8v-9.5h-3v-3.2h3v-5.9h4v5.9h4.4v3.2h-4.4v8.4c0 1.9 0.5 2.6 2.5 2.6 0.6 0 1.3-0.1 1.7-0.2v3.1c-0.4 0.1-1.9 0.2-2.9 0.2-4.4 0-5.3-1.6-5.3-4.6zm9.9-4.1c0-6.5 4.4-8.9 8.3-8.9 4.2 0 6 2.4 7 5l-3.3 1.2c-0.7-1.9-1.9-2.9-3.8-2.9-2.3 0-4.2 1.5-4.2 5.6 0 3.7 1.5 5.7 4.1 5.7 1.8 0 3.1-0.6 4-3l3.3 1.2c-1.2 2.7-3.3 5-7.4 5-4 0-8-2.7-8-8.9zm17.8 8.5v-23.8h3.9v9c1.2-1.1 3.2-2.6 6.3-2.6 3 0 4.9 1.8 4.9 5.2v12.2h-3.9v-11.2c0-1.9-0.8-2.8-2.6-2.8-1.7 0-3.2 0.9-4.6 2.2v11.8zm18.2-8.7v-15.1h4v14.8c0 3.6 1.6 5.8 5.2 5.8 3.7 0 5.2-2.1 5.2-5.8v-14.8h4v15.1c0 5.4-3.1 9.1-9.2 9.1-6.5 0-9.2-3.7-9.2-9.1zm21 15.2v-23.6h4v2.3c1.1-1.4 2.9-2.6 5.4-2.6 3.9 0 6.8 2.9 6.8 8.9 0 5.9-2.9 8.8-7.3 8.8-1.9 0-3.7-0.7-4.9-2.1v8.3zm12.2-15c0-3.6-1.6-5.5-4.1-5.5-1.6 0-3.2 1.1-4.1 2.2v6.9c1 1.3 2.6 2.1 4 2.1 2.9-0.1 4.2-1.9 4.2-5.7z"/>
		<path id="Layer" fill-rule="evenodd" class="s1" d="m39.7 27c0 0-0.2 2.3-1.5 4.6-1.5 2.7-3.5 3.8-3.5 3.8l-11.3 6.4v-19.9l-17.1-9.8 11.2-6.4c0 0 1.9-1.2 5.1-1.2 3 0 5 1.1 5 1.1l12.1 7zm-4.2-2.3v-9.6l-8.8-5.1c0 0-1.8-0.9-4.1-0.9-2.4 0-3.9 0.8-3.9 0.8l-3.8 2.2 1.7 1 2.8-1.6c0 0 1.1-0.7 3.2-0.7 2.2 0 3.3 0.8 3.3 0.8l7.8 4.4v8.9c0 1-0.4 3.9-3.1 5.8l-2.9 1.7v1.9l3.7-2.1c3.4-2.4 4.1-6 4.1-7.5zm-7.8-5.3v7.5c0 0 1.7-2.1 1.7-4.1 0-2.6 0-4.2 0-4.2 0 0-1.2-0.7-3.4-2-2.1-1.2-4.6-0.7-4.6-0.7zm-22.3-5.9l16.3 9.3v18.9l-11-6.3c0 0-1.6-0.9-3-2.8-1.4-1.9-2.1-4.4-2.2-5.2l11.9 6.8v-2l-11.1-6.3 4.3-2.5 6.9 4v-2.1l-12-6.9z"/>
	</g>
</svg>